<?xml version="1.0" encoding="UTF-8"?>
<svg version="1.1" xmlns="http://www.w3.org/2000/svg" width="357" height="341">
<path d="M0 0 C4.30298696 3.18421035 6.0382375 6.16720853 7.125 11.3125 C7.3678469 16.412285 7.05872013 20.92454866 6.125 25.9375 C3.87998648 39.68215111 3.91507725 54.27483032 7.46875 67.765625 C8.125 70.3125 8.125 70.3125 8.125 73.3125 C8.785 73.3125 9.445 73.3125 10.125 73.3125 C10.29902344 71.80042969 10.29902344 71.80042969 10.4765625 70.2578125 C12.27457838 59.31807731 17.51249541 49.14111028 22.5625 39.375 C23.22548096 38.08021729 23.22548096 38.08021729 23.90185547 36.75927734 C27.53412433 29.90506858 31.61140773 22.83312054 38 18.25 C43.53768477 16.58869457 48.68152707 16.24184007 53.9375 18.9375 C58.2096105 22.12064116 60.58134901 24.47586941 61.609375 29.83984375 C62.09474649 36.79372371 60.36764745 41.75404556 57.25317383 47.90893555 C46.20554747 69.81647927 33.07520981 102.2500507 39.375 127.23046875 C40.6866441 130.87164743 42.2039488 132.71601004 45.125 135.3125 C48.56308422 136.72064405 48.56308422 136.72064405 52.125 136.3125 C56.2621369 133.46247236 57.92485869 130.40092887 58.921875 125.48046875 C59.20686549 122.43874328 58.85400982 119.62104577 58.43359375 116.60546875 C57.43890885 109.21458223 57.69169319 104.46987057 62.125 98.3125 C66.03302323 94.75975161 69.73155282 93.94242771 75.0078125 94.0390625 C80.94129372 94.80537926 85.17065449 98.77451026 88.7734375 103.25390625 C95.58972869 113.63594514 96.55091846 126.55778006 94.59375 138.57421875 C89.26385432 161.19730855 74.70528222 174.28325925 56.2277832 186.97485352 C55.539021 187.45108154 54.85025879 187.92730957 54.140625 188.41796875 C53.23231934 189.03901489 53.23231934 189.03901489 52.30566406 189.67260742 C51.58604492 190.21377197 50.86642578 190.75493652 50.125 191.3125 C49.54298828 191.6939769 48.96097656 192.0754538 48.36132812 192.4684906 C45.52164656 194.52848201 43.50447781 196.14540736 42.39825439 199.54762268 C42.03349059 202.24157119 41.89345222 204.85600518 41.84375 207.57421875 C41.81333618 208.56065872 41.78292236 209.54709869 41.75158691 210.56343079 C41.70312684 212.64666879 41.67403367 214.73043618 41.66308594 216.81420898 C41.62522586 219.98110759 41.45984249 223.12496481 41.2890625 226.28710938 C40.78846538 236.42320632 40.78846538 236.42320632 44.79052734 245.36431885 C49.36453476 249.35186266 54.55768236 251.98568815 60.125 254.3125 C61.07753662 254.74771973 62.03007324 255.18293945 63.01147461 255.63134766 C65.20626384 256.57851171 65.20626384 256.57851171 67.66015625 255.37890625 C68.91119141 254.63447266 68.91119141 254.63447266 70.1875 253.875 C74.59967479 251.27120502 74.59967479 251.27120502 76.96362305 251.45703125 C80.03111409 252.67113817 81.78578408 254.60193783 84.109375 256.93359375 C84.56983215 257.3935524 85.03028931 257.85351105 85.50469971 258.32740784 C86.47305383 259.29809656 87.43773083 260.27246576 88.39892578 261.25024414 C89.87505487 262.75005575 91.36414838 264.23601194 92.85546875 265.72070312 C100.125 273.0456885 100.125 273.0456885 100.125 275.3125 C30.495 275.3125 -39.135 275.3125 -110.875 275.3125 C-105.24688209 269.68438209 -105.24688209 269.68438209 -102.01171875 267.18359375 C-100.94111206 266.35275269 -100.94111206 266.35275269 -99.84887695 265.50512695 C-99.09437256 264.92593506 -98.33986816 264.34674316 -97.5625 263.75 C-96.76996826 263.13793701 -95.97743652 262.52587402 -95.16088867 261.89526367 C-88.74165994 256.94986682 -82.28951963 252.04894734 -75.77734375 247.2265625 C-73.06978067 245.21959587 -70.40396921 243.16817454 -67.75390625 241.0859375 C-66.41929612 240.05725886 -65.08466159 239.02861188 -63.75 238 C-63.14647705 237.51313721 -62.5429541 237.02627441 -61.92114258 236.5246582 C-59.10807468 234.38360316 -57.40245598 233.30912752 -53.8203125 233.33203125 C-50.65839015 234.38460752 -47.83900338 235.79811887 -44.875 237.3125 C-44.89140657 230.14445238 -44.94663317 222.97742108 -45.02758789 215.80981445 C-45.05064148 213.37661328 -45.06513359 210.94331411 -45.07055664 208.51000977 C-44.83594413 189.7598039 -44.83594413 189.7598039 -50.875 172.3125 C-51.19283447 171.64162354 -51.51066895 170.97074707 -51.83813477 170.27954102 C-56.510787 160.5805087 -62.87581841 151.71919873 -68.875 142.8125 C-75.34002708 133.21191761 -81.63116171 123.64825229 -86.875 113.3125 C-87.28685547 112.50651367 -87.69871094 111.70052734 -88.12304688 110.87011719 C-104.36492889 78.77987893 -104.36492889 78.77987893 -101.875 67.3125 C-100.2544404 62.65647598 -98.33376451 58.75762892 -93.875 56.3125 C-88.8750025 54.64583417 -84.58845913 54.73626139 -79.75 56.8125 C-72.5756564 60.78747416 -70.55300032 67.98692469 -68.0546875 75.34765625 C-65.93906941 80.6647229 -62.88783649 85.46318734 -59.875 90.3125 C-59.875 87.6217419 -60.83768009 85.79851249 -61.88671875 83.31640625 C-80.1628934 39.37963924 -80.1628934 39.37963924 -73.875 22.3125 C-71.75149204 17.58818184 -69.22920298 14.21530199 -64.875 11.3125 C-59.50549295 9.52266432 -54.67764667 9.42818276 -49.5625 11.9375 C-43.01072143 17.72744385 -42.18324838 22.76364854 -41.375 31.1875 C-39.4786898 47.66591613 -36.21662638 62.30006043 -26.875 76.3125 C-27.07996094 75.14074219 -27.28492188 73.96898438 -27.49609375 72.76171875 C-31.11467009 51.79453863 -35.7057731 24.55381359 -23.6875 5.4375 C-17.93812726 -1.82215572 -8.32547094 -4.29419027 0 0 Z M-15.875 10.3125 C-25.43316781 25.18076103 -22.82558035 49.52638417 -19.30126953 65.99316406 C-18.45941727 69.66448626 -17.58472899 73.32414075 -16.64013672 76.97045898 C-13.71318942 88.34205976 -13.71318942 88.34205976 -13.875 93.3125 C-14.535 94.3025 -15.195 95.2925 -15.875 96.3125 C-19.34441546 95.85427532 -22.54895049 95.42118317 -25.875 94.3125 C-26.58946417 93.00415633 -27.24522648 91.66365045 -27.875 90.3125 C-29.2533511 88.34182286 -30.65163317 86.38503047 -32.0625 84.4375 C-42.85316728 69.11636659 -48.34785574 52.67290332 -50.33203125 34.109375 C-50.45263916 33.02619995 -50.45263916 33.02619995 -50.57568359 31.92114258 C-50.73064678 30.50043374 -50.87339756 29.07832648 -51.00244141 27.6550293 C-51.30676144 24.83044971 -51.59627894 22.71688721 -53.2265625 20.3515625 C-55.03503643 19.01285209 -55.03503643 19.01285209 -58.3125 19.25 C-61.98615367 20.03083845 -61.98615367 20.03083845 -64.25 22.75 C-70.82977164 37.17488399 -63.26313838 55.38772381 -58.08203125 69.33984375 C-55.36867414 76.02225398 -52.10199533 82.47277563 -48.78735352 88.87451172 C-43.93734882 98.43861905 -43.93734882 98.43861905 -44.875 104.3125 C-46.875 107.3125 -46.875 107.3125 -49.625 108.1875 C-54.51823321 108.37570128 -57.11600498 106.91837655 -60.71484375 103.6328125 C-69.79574107 94.1023658 -75.989078 82.72546696 -79.609375 70.140625 C-81.14011303 66.72008693 -82.47912069 65.7926205 -85.875 64.3125 C-88.55475596 64.29796047 -88.55475596 64.29796047 -90.875 65.3125 C-93.36411987 69.0461798 -93.15475318 70.88307461 -92.875 75.3125 C-88.27419594 96.44410004 -75.81271089 116.59137384 -63.875 134.3125 C-62.85155328 135.8372334 -61.82811582 137.361973 -60.8046875 138.88671875 C-60.29881104 139.63993408 -59.79293457 140.39314941 -59.27172852 141.16918945 C-54.87192507 147.72760015 -50.5246295 154.30331465 -46.4375 161.0625 C-46.04868652 161.68656738 -45.65987305 162.31063477 -45.25927734 162.95361328 C-38.80066599 173.84258093 -36.12663514 184.79234994 -36.16796875 197.3671875 C-36.15284744 198.63474884 -36.13772614 199.90231018 -36.12214661 201.20828247 C-36.08683017 204.5258754 -36.07214212 207.84265156 -36.06811523 211.16040039 C-36.05867941 214.56673295 -36.02120304 217.97275599 -35.98632812 221.37890625 C-35.92383909 228.02344501 -35.88861385 234.66769071 -35.875 241.3125 C-33.37752977 242.58851331 -30.87722064 243.85836171 -28.375 245.125 C-27.67890625 245.48142578 -26.9828125 245.83785156 -26.265625 246.20507812 C-24.14954326 247.27291567 -22.01612162 248.29594685 -19.875 249.3125 C-19.21912399 249.6515033 -18.56324799 249.99050659 -17.88749695 250.33978271 C-13.02950146 252.58482768 -10.00258955 252.31328484 -4.99824524 250.54351807 C-4.18026962 250.22493835 -3.36229401 249.90635864 -2.51953125 249.578125 C-1.6548674 249.2655072 -0.79020355 248.9528894 0.10066223 248.63079834 C2.84752193 247.63215461 5.57961026 246.59868957 8.3125 245.5625 C11.05851601 244.54854196 13.80708829 243.5418323 16.55647278 242.53704834 C18.26193927 241.91081279 19.96495117 241.27784003 21.66508484 240.63726807 C25.46586598 239.21486272 29.09202918 237.92756992 33.125 237.3125 C33.11863525 236.05179688 33.11227051 234.79109375 33.10571289 233.4921875 C33.09121725 228.78776995 33.12273192 224.08456472 33.16772461 219.38037109 C33.18081561 217.3494887 33.18164343 215.31848699 33.16967773 213.28759766 C33.15458751 210.35721964 33.18446856 207.43011095 33.22265625 204.5 C33.20840103 203.60071777 33.19414581 202.70143555 33.17945862 201.77490234 C33.31953727 195.59247982 34.93314531 192.4491171 39.22645569 188.01295471 C42.45590121 185.12046186 45.89721149 182.65199405 49.5 180.25 C51.00495988 179.21768018 52.50887653 178.18383777 54.01171875 177.1484375 C54.72376465 176.66084961 55.43581055 176.17326172 56.16943359 175.67089844 C59.95030141 173.04458776 63.54000566 170.19625369 67.125 167.3125 C68.15625 166.549375 69.1875 165.78625 70.25 165 C79.67696119 156.18784063 85.35769728 144.24705105 86.34765625 131.4296875 C86.61988928 122.17376436 85.183658 113.61852876 79.125 106.3125 C76.33047261 104.091209 75.01693395 103.2710147 71.4375 103.4375 C68.79154608 104.18228792 68.79154608 104.18228792 67.125 107.3125 C67.19488527 110.04093744 67.3649421 112.66530784 67.625 115.375 C68.34132327 125.02250275 68.29716846 132.91132066 61.828125 140.68359375 C58.22070969 144.13380518 54.52933953 145.13376588 49.6875 145.75 C43.66199279 145.01002543 39.63695402 142.79085504 35.3125 138.5625 C26.31723106 125.19810044 28.62065536 109.02204845 31.54296875 94.03125 C35.4855998 75.61466467 42.35503888 58.33166135 50.07250977 41.21044922 C51.93971584 37.01464253 52.74755776 33.93721479 52.125 29.3125 C50.03297135 26.81815815 48.43945555 26.39635481 45.3125 25.5625 C39.92615019 26.82987643 37.96258347 30.78161316 35.125 35.3125 C26.47486342 49.82493976 19.55024979 65.31907241 16.54174805 82.0078125 C15.56561388 86.98027713 15.56561388 86.98027713 13.171875 88.78515625 C10.37540873 89.50561989 8.82727435 89.35183629 6.125 88.3125 C3.43918696 84.51580094 2.01537609 80.52006405 0.5625 76.125 C-0.05818359 74.27841797 -0.05818359 74.27841797 -0.69140625 72.39453125 C-3.41475912 63.38882278 -4.20177309 54.8971627 -4.125 45.5 C-4.12113281 44.35233154 -4.11726563 43.20466309 -4.11328125 42.0222168 C-4.04246512 35.10043175 -3.61890786 28.54645715 -2.328125 21.7421875 C-1.56346579 17.64203206 -1.46903825 14.02656072 -2.4375 9.9375 C-3.9072351 7.98121992 -3.9072351 7.98121992 -7.1875 7.375 C-11.32878814 7.30480868 -12.76370703 7.63333105 -15.875 10.3125 Z " fill="#010101" transform="translate(171.875,9.6875)"/>
<path d="M0 0 C2.68316796 3.43780895 3.47055101 5.66524324 3.40625 10.0859375 C2.08820907 18.12091776 -3.43890542 27.64167907 -10 32.5625 C-13.9375 33.0625 -13.9375 33.0625 -17 32.5625 C-17 31.9025 -17 31.2425 -17 30.5625 C-18.0725 30.5625 -19.145 30.5625 -20.25 30.5625 C-22.83333333 30.5625 -25.41666667 30.5625 -28 30.5625 C-29 29.5625 -29 29.5625 -29.11352539 26.97045898 C-29.10828857 25.84454346 -29.10305176 24.71862793 -29.09765625 23.55859375 C-29.09443359 22.34365234 -29.09121094 21.12871094 -29.08789062 19.87695312 C-29.07951172 18.59755859 -29.07113281 17.31816406 -29.0625 16 C-29.05798828 14.71673828 -29.05347656 13.43347656 -29.04882812 12.11132812 C-29.03699545 8.92833978 -29.02051068 5.74544238 -29 2.5625 C-28.21238281 2.26472656 -27.42476562 1.96695312 -26.61328125 1.66015625 C-23.99008945 0.71650166 -23.99008945 0.71650166 -22.1875 -1 C-16.02205405 -5.05157876 -5.61272589 -4.56033979 0 0 Z M-10 7.5625 C-13.70455407 8.6932924 -13.70455407 8.6932924 -17 10.5625 C-18.24285895 14.01124671 -18.24285895 14.01124671 -18 17.5625 C-17.01 19.0475 -17.01 19.0475 -16 20.5625 C-13.65082102 18.40908594 -12.17556996 16.34582063 -10.75 13.5 C-10.39421875 12.80777344 -10.0384375 12.11554688 -9.671875 11.40234375 C-9.45015625 10.79519531 -9.2284375 10.18804687 -9 9.5625 C-9.33 8.9025 -9.66 8.2425 -10 7.5625 Z " fill="#06BC64" transform="translate(33,301.4375)"/>
<path d="M0 0 C1.4540625 0.0309375 1.4540625 0.0309375 2.9375 0.0625 C4.8453584 3.2374094 5.0984041 5.16835211 4.5625 8.8125 C4.39621094 10.01132812 4.39621094 10.01132812 4.2265625 11.234375 C4.08347656 12.13929688 4.08347656 12.13929688 3.9375 13.0625 C4.5975 12.7325 5.2575 12.4025 5.9375 12.0625 C11.13088605 11.5678918 11.13088605 11.5678918 13.9375 12.0625 C17.37769146 15.61366538 17.81624469 20.2775791 17.9375 25.0625 C17.5 28.5625 17.5 28.5625 16.9375 31.0625 C16.2775 31.0625 15.6175 31.0625 14.9375 31.0625 C14.855 31.805 14.7725 32.5475 14.6875 33.3125 C13.77697526 36.65109072 12.61982473 37.91664021 9.9375 40.0625 C6.49685729 41.37673692 4.32015071 40.82029465 0.875 39.6875 C0.01777344 39.41164063 -0.83945312 39.13578125 -1.72265625 38.8515625 C-2.49480469 38.59117187 -3.26695312 38.33078125 -4.0625 38.0625 C-5.0525 37.7325 -6.0425 37.4025 -7.0625 37.0625 C-8.56856515 34.05036971 -8.18410331 30.94967378 -8.16015625 27.6484375 C-8.1587413 26.91879791 -8.15732635 26.18915833 -8.15586853 25.43740845 C-8.15026531 23.10406415 -8.13771235 20.77081536 -8.125 18.4375 C-8.11998541 16.85677222 -8.11542243 15.27604293 -8.11132812 13.6953125 C-8.10029484 9.81767146 -8.08302811 5.94010193 -8.0625 2.0625 C-7.423125 1.918125 -6.78375 1.77375 -6.125 1.625 C-0.18014706 0.00367647 -0.18014706 0.00367647 0 0 Z M3.8125 24.0625 C3.19375 24.7225 2.575 25.3825 1.9375 26.0625 C2.2675 26.7225 2.5975 27.3825 2.9375 28.0625 C3.9275 28.0625 4.9175 28.0625 5.9375 28.0625 C6.5975 26.0825 7.2575 24.1025 7.9375 22.0625 C5.69387427 21.8340451 5.69387427 21.8340451 3.8125 24.0625 Z " fill="#020202" transform="translate(308.0625,293.9375)"/>
<path d="M0 0 C1.60875 -0.020625 3.2175 -0.04125 4.875 -0.0625 C6.23238281 -0.07990234 6.23238281 -0.07990234 7.6171875 -0.09765625 C10 0 10 0 12 1 C13.24173682 6.07983246 13.24173682 6.07983246 12.52563477 8.80566406 C11.83772301 11.67744801 11.88841867 14.34475709 11.90234375 17.296875 C11.90717773 19.10478516 11.90717773 19.10478516 11.91210938 20.94921875 C11.92048828 22.20347656 11.92886719 23.45773437 11.9375 24.75 C11.94201172 26.01972656 11.94652344 27.28945313 11.95117188 28.59765625 C11.96295444 31.73181836 11.97940584 34.86588541 12 38 C11.38125 37.79375 10.7625 37.5875 10.125 37.375 C9.073125 37.189375 9.073125 37.189375 8 37 C7.34 37.66 6.68 38.32 6 39 C0.40366578 39.46636118 -3.18460288 39.17378446 -8 36 C-11.74008914 31.8555769 -13.53913955 28.9497459 -13.4765625 23.234375 C-12.53188079 18.80521158 -9.38944622 15.82792119 -6 13 C-2.5625 11.5 -2.5625 11.5 0 11 C0 7.37 0 3.74 0 0 Z M-1 26 C-1 27.32 -1 28.64 -1 30 C-0.67 28.68 -0.34 27.36 0 26 C-0.33 26 -0.66 26 -1 26 Z " fill="#0ABA66" transform="translate(111,294)"/>
<path d="M0 0 C5.21944095 -0.18747992 5.21944095 -0.18747992 7.46875 0.15234375 C9.64205391 3.41229961 9.71796459 4.38214341 9.65625 8.15234375 C9.64980469 9.01859375 9.64335938 9.88484375 9.63671875 10.77734375 C9.46875 13.15234375 9.46875 13.15234375 8.46875 16.15234375 C9.45875 16.15234375 10.44875 16.15234375 11.46875 16.15234375 C11.08146765 21.86475841 10.59864477 24.88922657 6.46875 29.15234375 C4.81875 28.82234375 3.16875 28.49234375 1.46875 28.15234375 C1.46875 27.49234375 1.46875 26.83234375 1.46875 26.15234375 C0.90027344 26.48234375 0.33179687 26.81234375 -0.25390625 27.15234375 C-4.08810335 28.83597061 -7.57996517 28.33561621 -11.53125 27.15234375 C-15.38012599 23.94494709 -16.73390734 21.56929016 -17.53125 16.65234375 C-17.76843688 12.368605 -17.04709442 9.72321969 -14.53125 6.15234375 C-9.72922571 1.35031946 -6.57755013 0.39587107 0 0 Z M-5.53125 10.15234375 C-6.19125 10.81234375 -6.85125 11.47234375 -7.53125 12.15234375 C-7.21083603 14.75514943 -7.21083603 14.75514943 -6.53125 17.15234375 C-5.21125 16.49234375 -3.89125 15.83234375 -2.53125 15.15234375 C-2.53125 13.50234375 -2.53125 11.85234375 -2.53125 10.15234375 C-3.52125 10.15234375 -4.51125 10.15234375 -5.53125 10.15234375 Z " fill="#09BB68" transform="translate(84.53125,304.84765625)"/>
<path d="M0 0 C2 2 2 2 2.1953125 5.2578125 C2.17210937 6.53398437 2.14890625 7.81015625 2.125 9.125 C2.10695313 10.40632813 2.08890625 11.68765625 2.0703125 13.0078125 C2.04710937 13.99523437 2.02390625 14.98265625 2 16 C2.99 16.33 3.98 16.66 5 17 C2 25.57142857 2 25.57142857 -1 29 C-2.65 28.67 -4.3 28.34 -6 28 C-6 27.34 -6 26.68 -6 26 C-6.53625 26.33 -7.0725 26.66 -7.625 27 C-10.70340819 28.29617187 -12.67716638 28.39874003 -16 28 C-19.98730566 25.85298926 -22.3467823 24.21570514 -24 20 C-24.72182006 15.46780288 -24.96516073 11.00128917 -22.9375 6.796875 C-19.97714702 2.96772278 -16.98641245 1.04322111 -12.2265625 0.20703125 C-8.15858282 -0.17121949 -4.06477716 -0.51376366 0 0 Z M-13 10 C-14.10636395 12.39068734 -14.10636395 12.39068734 -15 15 C-14.67 15.66 -14.34 16.32 -14 17 C-13.01 17 -12.02 17 -11 17 C-11 16.34 -11 15.68 -11 15 C-10.34 15 -9.68 15 -9 15 C-9 13.35 -9 11.7 -9 10 C-10.32 10 -11.64 10 -13 10 Z " fill="#020202" transform="translate(293,305)"/>
<path d="M0 0 C6.15234375 -0.09765625 6.15234375 -0.09765625 8 0 C9.87824891 1.87824891 9.39102397 5.03935276 9.5625 7.5625 C9.64628906 8.76003906 9.73007813 9.95757812 9.81640625 11.19140625 C9.87699219 12.11824219 9.93757812 13.04507812 10 14 C10.60585937 13.49082031 11.21171875 12.98164063 11.8359375 12.45703125 C12.55007812 11.97621094 13.26421875 11.49539063 14 11 C17.13759973 11.82175231 18.70255875 12.70255875 21 15 C20.82194873 18.38297413 20.21162756 19.76272061 17.9375 22.3125 C17.298125 22.869375 16.65875 23.42625 16 24 C16.804375 24.495 17.60875 24.99 18.4375 25.5 C21.47010233 28.45863642 21.79618348 30.00669324 22.0859375 34.09375 C21.97894896 36.46695028 21.37102192 38.06443964 20 40 C16.40094092 39.44449305 15.00090201 38.25112752 12.75 35.4375 C12.22921875 34.79683594 11.7084375 34.15617187 11.171875 33.49609375 C10.78515625 33.00238281 10.3984375 32.50867188 10 32 C9.34 33.98 8.68 35.96 8 38 C5.36 38.33 2.72 38.66 0 39 C-1.70760005 35.58479989 -1.14447751 31.69248531 -1.125 27.9375 C-1.12306641 27.05094727 -1.12113281 26.16439453 -1.11914062 25.25097656 C-1.06498306 16.81142217 -0.61044884 8.41547329 0 0 Z " fill="#020202" transform="translate(203,294)"/>
<path d="M0 0 C3.51235316 1.95881234 4.90080629 3.03475762 6.25 6.8125 C5.4375 9.625 5.4375 9.625 4.25 11.8125 C3.59 11.8125 2.93 11.8125 2.25 11.8125 C2.25 12.8025 2.25 13.7925 2.25 14.8125 C3.57 14.8125 4.89 14.8125 6.25 14.8125 C5.75996483 22.28553634 5.75996483 22.28553634 3.375 24.75 C-2.34780262 27.61140131 -7.54179719 27.51176422 -13.5 25.625 C-17.1563215 23.58589763 -18.81081625 22.5357328 -20.75 18.8125 C-21.69896645 13.93756752 -21.88305898 9.70796303 -19.28125 5.35546875 C-13.66846348 -1.24431201 -8.49076738 -2.688743 0 0 Z M-7.75 6.8125 C-8.74 7.4725 -9.73 8.1325 -10.75 8.8125 C-8.77 8.8125 -6.79 8.8125 -4.75 8.8125 C-5.74 8.1525 -6.73 7.4925 -7.75 6.8125 Z M-6.5 15.3125 C-7.69882812 15.45171875 -7.69882812 15.45171875 -8.921875 15.59375 C-9.82679687 15.70203125 -9.82679687 15.70203125 -10.75 15.8125 C-10.42 16.4725 -10.09 17.1325 -9.75 17.8125 C-8.31344146 17.89381463 -6.8755517 17.95183559 -5.4375 18 C-4.63699219 18.03480469 -3.83648437 18.06960938 -3.01171875 18.10546875 C-0.27148416 17.75051608 0.54171079 16.91883718 2.25 14.8125 C-0.76853795 14.8125 -3.52081079 14.96200715 -6.5 15.3125 Z " fill="#04BD63" transform="translate(58.75,306.1875)"/>
<path d="M0 0 C2.09231563 2.61539454 2.43074428 4.55072563 2.5 7.875 C1.5625 9.8125 1.5625 9.8125 -0.5 10.875 C-2.57533236 10.74556139 -4.52780695 10.43165422 -6.5625 10.00390625 C-8.83032268 9.65558934 -8.83032268 9.65558934 -11.5 11.875 C-11.5 12.865 -11.5 13.855 -11.5 14.875 C-9.85669053 15.77224685 -9.85669053 15.77224685 -7.5 15.875 C-5.73041996 15.02252432 -5.73041996 15.02252432 -3.9375 13.875 C-2.803125 13.215 -1.66875 12.555 -0.5 11.875 C0.49 12.205 1.48 12.535 2.5 12.875 C2.79130874 17.82724859 2.72986308 20.97688939 -0.5 24.875 C-4.53957877 27.29874726 -8.90178574 27.44413065 -13.5 26.875 C-18.67582888 25.08336693 -20.98645058 22.71590998 -23.5 17.875 C-24.58607911 13.82030467 -24.77612761 11.65736155 -23.375 7.6875 C-18.2196356 -0.04554661 -8.82139807 -3.96962913 0 0 Z " fill="#030303" transform="translate(197.5,306.125)"/>
<path d="M0 0 C0 0.66 0 1.32 0 2 C0.66 2 1.32 2 2 2 C3.01259619 5.36992013 3.16555609 8.48897481 3.1875 12 C3.20167969 13.03125 3.21585938 14.0625 3.23046875 15.125 C2.99747009 18.03155956 2.59756521 19.59038337 1 22 C-2.28298737 24.59903167 -4.27180668 25.96450788 -8.47265625 26.05078125 C-13.00494443 25.41503042 -16.34769768 24.2618068 -19.625 21 C-22.36998682 17.26463441 -22.76110821 13.9277045 -22.44921875 9.3671875 C-21.75775168 5.72345669 -20.54986096 3.68062306 -18 1 C-12.33034332 -2.4462619 -6.02776007 -3.01388004 0 0 Z M-10.8125 9.1875 C-12.25290328 10.95054109 -12.25290328 10.95054109 -11.6875 13.1875 C-11.460625 13.785625 -11.23375 14.38375 -11 15 C-9.35 14.67 -7.7 14.34 -6 14 C-5.67 12.35 -5.34 10.7 -5 9 C-8.00748915 7.84137694 -8.00748915 7.84137694 -10.8125 9.1875 Z " fill="#020202" transform="translate(168,307)"/>
<path d="M0 0 C0.12905108 7.41326777 -0.23371455 14.6245025 -1 22 C2.63 21.67 6.26 21.34 10 21 C12.28828829 26.72072072 12.28828829 26.72072072 11 30 C8.64660966 32.35339034 3.24682506 31.81379962 0.0625 32.125 C-1.33645508 32.27388672 -1.33645508 32.27388672 -2.76367188 32.42578125 C-3.65505859 32.51472656 -4.54644531 32.60367188 -5.46484375 32.6953125 C-6.285896 32.77797363 -7.10694824 32.86063477 -7.95288086 32.94580078 C-10 33 -10 33 -12 32 C-15.40004785 22.23024225 -12.62700289 9.17760042 -12 -1 C-7.388017 -2.13905625 -4.51729745 -1.50576582 0 0 Z " fill="#030303" transform="translate(255,300)"/>
<path d="M0 0 C0.66 0.66 1.32 1.32 2 2 C1.625 4.625 1.625 4.625 1 7 C-3.29299643 8.26264601 -5.87831311 7.62950412 -10 6 C-10 6.66 -10 7.32 -10 8 C-8.7625 8.0825 -7.525 8.165 -6.25 8.25 C-3.28523201 8.6337377 -2.04370996 8.97049578 0.5 10.6875 C2.52176688 13.80439061 2.6584913 15.34171499 2 19 C-0.02758253 22.46651207 -1.26600769 24.37694953 -5.0546875 25.73828125 C-10.11157487 26.60442632 -13.9494155 25.84724967 -18.40234375 23.32421875 C-20.8609467 21.28640359 -21.44264736 19.0654395 -22 16 C-21.34 15.34 -20.68 14.68 -20 14 C-18 14.375 -18 14.375 -16 15 C-15.34 15 -14.68 15 -14 15 C-14.969375 14.46375 -15.93875 13.9275 -16.9375 13.375 C-20 11 -20 11 -21 8 C-21 4.89600752 -20.78652306 3.50113229 -19 1 C-12.88655102 -3.07563265 -6.75104472 -2.07631052 0 0 Z " fill="#030303" transform="translate(349,307)"/>
<path d="M0 0 C0 8.58 0 17.16 0 26 C0.99 24.68 1.98 23.36 3 22 C4.32 22.33 5.64 22.66 7 23 C7.91368176 27.65977696 8.44465928 30.80915552 6 35 C4.375 36.875 4.375 36.875 2 38 C-1.91794483 38.1243792 -4.41009016 38.11713089 -7.62890625 35.85546875 C-11.81106842 31.14904694 -11.46227517 25.94716556 -11.2421875 19.93359375 C-11.16226563 18.63550781 -11.08234375 17.33742188 -11 16 C-10.9188403 14.51174217 -10.83812245 13.02346018 -10.7578125 11.53515625 C-10.5392857 7.68731281 -10.27955397 3.84386705 -10 0 C-6.05523353 -0.80688405 -4.00001715 -1.00000429 0 0 Z " fill="#030404" transform="translate(137,295)"/>
<path d="M0 0 C0.928125 0.5259375 0.928125 0.5259375 1.875 1.0625 C2.57625 1.371875 3.2775 1.68125 4 2 C4.66 1.67 5.32 1.34 6 1 C6 1.66 6 2.32 6 3 C8.6314388 4.3157194 11.05114309 5 14 5 C14.33 4.01 14.66 3.02 15 2 C17 3 17 3 18 5 C18.99 4.67 19.98 4.34 21 4 C22.5625 5.25 22.5625 5.25 24 7 C23.6828368 10.171632 22.22070812 13.07030051 21 16 C18.525 15.505 18.525 15.505 16 15 C16 14.01 16 13.02 16 12 C15.15115234 12.25330078 15.15115234 12.25330078 14.28515625 12.51171875 C10.44386607 13.33250725 6.80013481 12.91578201 3 12 C0.11587832 9.65665114 -0.00271689 7.98664198 -0.75 4.3125 C-0.8325 3.219375 -0.915 2.12625 -1 1 C-0.67 0.67 -0.34 0.34 0 0 Z " fill="#04BC63" transform="translate(70,318)"/>
<path d="M0 0 C3.51235316 1.95881234 4.90080629 3.03475762 6.25 6.8125 C5.4375 9.625 5.4375 9.625 4.25 11.8125 C3.59 11.8125 2.93 11.8125 2.25 11.8125 C2.25 12.8025 2.25 13.7925 2.25 14.8125 C-2.7 15.4725 -7.65 16.1325 -12.75 16.8125 C-12.75 15.8225 -12.75 14.8325 -12.75 13.8125 C-8.13 13.8125 -3.51 13.8125 1.25 13.8125 C1.58 11.8325 1.91 9.8525 2.25 7.8125 C1.69570313 7.98007812 1.14140625 8.14765625 0.5703125 8.3203125 C-0.15414062 8.52398437 -0.87859375 8.72765625 -1.625 8.9375 C-2.70394531 9.25074219 -2.70394531 9.25074219 -3.8046875 9.5703125 C-4.44664063 9.65023438 -5.08859375 9.73015625 -5.75 9.8125 C-6.41 9.1525 -7.07 8.4925 -7.75 7.8125 C-9.85820797 8.1310177 -9.85820797 8.1310177 -11.75 8.8125 C-11.75 8.1525 -11.75 7.4925 -11.75 6.8125 C-8.08694766 6.06323929 -5.32644848 5.5744986 -1.75 6.8125 C-2.08 5.4925 -2.41 4.1725 -2.75 2.8125 C-3.74 2.8125 -4.73 2.8125 -5.75 2.8125 C-6.843125 2.503125 -7.93625 2.19375 -9.0625 1.875 C-12.66618798 1.41221407 -12.66618798 1.41221407 -14.5390625 3.3046875 C-16.04784297 5.08519146 -17.4370304 6.88392561 -18.75 8.8125 C-19.41 8.4825 -20.07 8.1525 -20.75 7.8125 C-19.65344712 6.49363228 -18.54746577 5.18259943 -17.4375 3.875 C-16.82261719 3.14410156 -16.20773438 2.41320312 -15.57421875 1.66015625 C-11.27467623 -2.69462665 -5.39173378 -1.70738236 0 0 Z " fill="#1EB671" transform="translate(58.75,306.1875)"/>
<path d="M0 0 C4.96415698 4.04970701 6.20974073 7.7015157 7 14 C7 14.99 7 15.98 7 17 C-1.99846508 13.65771297 -1.99846508 13.65771297 -4.8125 9 C-6 6 -6 6 -6 3 C-4.02 2.01 -2.04 1.02 0 0 Z " fill="#020202" transform="translate(94,179)"/>
<path d="M0 0 C1.32 0 2.64 0 4 0 C3.50996483 7.47303634 3.50996483 7.47303634 1.125 9.9375 C-3.74364048 12.37182024 -8.87364553 13.01077626 -14.078125 11.328125 C-15.74488365 10.60992818 -17.37669693 9.81165153 -19 9 C-16.5990143 7.79950715 -15.61479284 8.04816504 -13 8.4375 C-10.95991865 8.73376181 -9.06251649 9 -7 9 C-6.01 9 -5.02 9 -4 9 C-4 7.35 -4 5.7 -4 4 C-6.31 4 -8.62 4 -11 4 C-11 3.67 -11 3.34 -11 3 C-10.28972656 2.86722656 -9.57945313 2.73445313 -8.84765625 2.59765625 C-7.92855469 2.42105469 -7.00945313 2.24445313 -6.0625 2.0625 C-5.14597656 1.88847656 -4.22945312 1.71445312 -3.28515625 1.53515625 C-1.04710156 1.22285012 -1.04710156 1.22285012 0 0 Z " fill="#12B56A" transform="translate(61,321)"/>
<path d="M0 0 C0.33 0.99 0.66 1.98 1 3 C1.66 3.33 2.32 3.66 3 4 C2.67 4.66 2.34 5.32 2 6 C2.66 6.33 3.32 6.66 4 7 C3.67 8.65 3.34 10.3 3 12 C2.01 11.01 1.02 10.02 0 9 C-0.33 9.33 -0.66 9.66 -1 10 C-0.78747161 11.88750827 -0.78747161 11.88750827 -0.25 14 C-0.01023437 15.0828125 -0.01023437 15.0828125 0.234375 16.1875 C0.48703125 16.785625 0.7396875 17.38375 1 18 C4.00778521 19.00259507 6.53820647 19.30314642 9.6875 19.5625 C10.68136719 19.64628906 11.67523438 19.73007812 12.69921875 19.81640625 C13.83810547 19.90728516 13.83810547 19.90728516 15 20 C12.92457505 21.80246656 11.57889429 22.924402 8.81640625 23.28515625 C4.4785951 22.85663764 2.43958892 22.3663241 -1 19.5 C-3.64552778 15.67868209 -4.31134488 11.5882403 -4 7 C-2.05882353 2.05882353 -2.05882353 2.05882353 0 0 Z " fill="#0CBA69" transform="translate(71,310)"/>
<path d="M0 0 C1.3125 3.125 1.3125 3.125 2 7 C-0.09075834 10.32061618 -1.58637116 12.46511341 -5.3125 13.875 C-6.1478125 13.936875 -6.1478125 13.936875 -7 14 C-8.81134978 10.67919207 -9.01829288 9.11991996 -8.4375 5.3125 C-7 2 -7 2 -4.5 0.5625 C-2 0 -2 0 0 0 Z " fill="#020202" transform="translate(252,204)"/>
<path d="M0 0 C6.40096618 -0.48309179 6.40096618 -0.48309179 8.9375 1.5625 C10.34907805 4.80082611 10.20145347 7.50813979 10 11 C3.69837297 10.40550688 3.69837297 10.40550688 1.0625 8.875 C-0.58420065 5.96905769 -0.18462917 3.26178195 0 0 Z " fill="#030303" transform="translate(100,210)"/>
<path d="M0 0 C1.25 2.5625 1.25 2.5625 2 5 C-0.125 7.0625 -0.125 7.0625 -3 9 C-6.3125 8.75 -6.3125 8.75 -9 8 C-8.75 4.625 -8.75 4.625 -8 1 C-5.32188759 -1.21636889 -3.12848647 -1.56424323 0 0 Z " fill="#030303" transform="translate(267,225)"/>
<path d="M0 0 C0.66 0.33 1.32 0.66 2 1 C0.71034824 2.37562854 -0.62689293 3.70766393 -2 5 C-2.66 5 -3.32 5 -4 5 C-4 12.59 -4 20.18 -4 28 C0.29 28.33 4.58 28.66 9 29 C9 29.99 9 30.98 9 32 C9.66 32.33 10.32 32.66 11 33 C9.35 33 7.7 33 6 33 C6 32.34 6 31.68 6 31 C4.9275 31 3.855 31 2.75 31 C0.16666667 31 -2.41666667 31 -5 31 C-6 30 -6 30 -6.11352539 27.40795898 C-6.10828857 26.28204346 -6.10305176 25.15612793 -6.09765625 23.99609375 C-6.09443359 22.78115234 -6.09121094 21.56621094 -6.08789062 20.31445312 C-6.07951172 19.03505859 -6.07113281 17.75566406 -6.0625 16.4375 C-6.05798828 15.15423828 -6.05347656 13.87097656 -6.04882812 12.54882812 C-6.03699545 9.36583978 -6.02051068 6.18294238 -6 3 C-5.195625 2.690625 -4.39125 2.38125 -3.5625 2.0625 C-1.10919595 1.23664655 -1.10919595 1.23664655 0 0 Z " fill="#2AA66D" transform="translate(10,301)"/>
<path d="M0 0 C0.66 0 1.32 0 2 0 C2.33 0.99 2.66 1.98 3 3 C5.00016466 4.20882096 5.00016466 4.20882096 7 5 C6.67 5.99 6.34 6.98 6 8 C5.34 7.67 4.68 7.34 4 7 C1.98072489 7.60578253 -0.02253397 8.26919734 -2 9 C-2.33 12.3 -2.66 15.6 -3 19 C-2.01 19.33 -1.02 19.66 0 20 C-1.65 20 -3.3 20 -5 20 C-4.25 4.25 -4.25 4.25 0 0 Z " fill="#14BC6E" transform="translate(19,303)"/>
<path d="M0 0 C1 3 1 3 1 5 C2.32 4.67 3.64 4.34 5 4 C5.66 6.64 6.32 9.28 7 12 C5.68 12.33 4.36 12.66 3 13 C3 12.34 3 11.68 3 11 C1.68 11 0.36 11 -1 11 C-1.66 8.03 -2.32 5.06 -3 2 C-2.01 1.34 -1.02 0.68 0 0 Z " fill="#01BD61" transform="translate(102,315)"/>
<path d="M0 0 C0.33 0 0.66 0 1 0 C1 7.26 1 14.52 1 22 C1.66 22 2.32 22 3 22 C3 23.65 3 25.3 3 27 C2.1028125 26.690625 2.1028125 26.690625 1.1875 26.375 C-1.28450846 25.69328085 -1.28450846 25.69328085 -4 28 C-3.625 25.5625 -3.625 25.5625 -3 23 C-2.34 22.67 -1.68 22.34 -1 22 C-0.67 14.74 -0.34 7.48 0 0 Z " fill="#1BB36F" transform="translate(120,305)"/>
<path d="M0 0 C0.268125 0.5775 0.53625 1.155 0.8125 1.75 C2.09439086 4.17884585 3.08121067 6.01616696 5 8 C8.18596662 8.70124774 8.18596662 8.70124774 11.6875 8.75 C12.86699219 8.80671875 14.04648438 8.8634375 15.26171875 8.921875 C16.16535156 8.94765625 17.06898437 8.9734375 18 9 C15.92457505 10.80246656 14.57889429 11.924402 11.81640625 12.28515625 C7.65656942 11.87421916 4.82228114 11.43974371 1.9375 8.25 C0.01792372 5.0300656 -0.53568894 3.6426848 0 0 Z " fill="#23B976" transform="translate(68,321)"/>
<path d="M0 0 C2.375 -0.1875 2.375 -0.1875 5 0 C7.1519437 3.22791555 7.20086443 4.28400809 7 8 C2.25 7.25 2.25 7.25 0 5 C-0.125 2.375 -0.125 2.375 0 0 Z " fill="#020202" transform="translate(78,206)"/>
<path d="M0 0 C0.99 0.33 1.98 0.66 3 1 C3.6875 3.0625 3.6875 3.0625 4 5 C1.6875 6.5625 1.6875 6.5625 -1 8 C-1.99 7.67 -2.98 7.34 -4 7 C-3.6875 4.625 -3.6875 4.625 -3 2 C-2.01 1.34 -1.02 0.68 0 0 Z " fill="#020202" transform="translate(240,237)"/>
<path d="M0 0 C6.93 0.495 6.93 0.495 14 1 C14 1.99 14 2.98 14 4 C14.66 4.33 15.32 4.66 16 5 C14.35 5 12.7 5 11 5 C11 4.34 11 3.68 11 3 C9.9275 3 8.855 3 7.75 3 C5.16666667 3 2.58333333 3 0 3 C0 2.01 0 1.02 0 0 Z " fill="#2FB67E" transform="translate(5,329)"/>
<path d="M0 0 C0.66 0 1.32 0 2 0 C2.07476562 0.73605469 2.14953125 1.47210938 2.2265625 2.23046875 C3.01421267 9.03165625 3.01421267 9.03165625 7.125 14.1875 C8.07375 14.785625 9.0225 15.38375 10 16 C9.34 16.33 8.68 16.66 8 17 C1.008 11.528 1.008 11.528 0 8 C-0.14516709 5.30922438 -0.089984 2.69952011 0 0 Z " fill="#25B475" transform="translate(98,315)"/>
<path d="M0 0 C1.32 0 2.64 0 4 0 C3.51171875 6.0546875 3.51171875 6.0546875 3 8 C2.01 8.66 1.02 9.32 0 10 C-0.33 9.01 -0.66 8.02 -1 7 C-0.01 7 0.98 7 2 7 C1.67 6.401875 1.34 5.80375 1 5.1875 C0 3 0 3 0 0 Z " fill="#40C088" transform="translate(61,321)"/>
<path d="M0 0 C0.66 0 1.32 0 2 0 C1.375 7.625 1.375 7.625 -2 11 C-1.34 7.37 -0.68 3.74 0 0 Z " fill="#2AB37A" transform="translate(94,321)"/>
<path d="M0 0 C1.32 0.66 2.64 1.32 4 2 C3.67 3.65 3.34 5.3 3 7 C2.34 7 1.68 7 1 7 C-0.0625 4.625 -0.0625 4.625 -1 2 C-0.67 1.34 -0.34 0.68 0 0 Z " fill="#19C074" transform="translate(75,314)"/>
</svg>
